<svg width="1024" height="753" viewBox="0 0 1024 753" fill="none" xmlns="http://www.w3.org/2000/svg">
<g opacity="0.2" filter="url(#filter0_f_175_198)">
<ellipse cx="512.5" cy="30.6238" rx="670.5" ry="346.624" fill="#35875D"/>
</g>
<path d="M33.0349 264.347C34.5302 264.347 35.6622 264.972 36.4308 266.22C37.2134 267.455 37.6047 269.253 37.6047 271.613C37.6047 273.973 37.2134 275.777 36.4308 277.026C35.6622 278.274 34.5302 278.899 33.0349 278.899C31.5536 278.899 30.4216 278.274 29.639 277.026C28.8564 275.777 28.4651 273.973 28.4651 271.613C28.4651 269.266 28.8564 267.469 29.639 266.22C30.4216 264.972 31.5536 264.347 33.0349 264.347ZM29.9534 271.613C29.9534 273.287 30.1072 274.597 30.4146 275.544L35.0683 266.426C34.5791 265.781 33.9013 265.459 33.0349 265.459C32.0706 265.459 31.316 265.966 30.771 266.982C30.2259 267.983 29.9534 269.527 29.9534 271.613ZM33.0349 277.767C34.0131 277.767 34.7748 277.266 35.3198 276.264C35.8648 275.249 36.1373 273.698 36.1373 271.613C36.1373 269.843 35.9627 268.47 35.6133 267.496L30.9596 276.696C31.4627 277.41 32.1545 277.767 33.0349 277.767Z" fill="url(#paint0_linear_175_198)" fill-opacity="0.6"/>
<path d="M34.2926 301.124H37.3741V302.215H29.3874V301.124H32.9511V289.557L29.5551 291.553L28.9682 290.627L33.1607 288.075H34.2926V301.124Z" fill="url(#paint1_linear_175_198)" fill-opacity="0.6"/>
<path d="M33.0349 311.391C34.5302 311.391 35.6622 312.016 36.4308 313.264C37.2134 314.499 37.6047 316.296 37.6047 318.657C37.6047 321.017 37.2134 322.821 36.4308 324.07C35.6622 325.318 34.5302 325.942 33.0349 325.942C31.5536 325.942 30.4216 325.318 29.639 324.07C28.8564 322.821 28.4651 321.017 28.4651 318.657C28.4651 316.31 28.8564 314.513 29.639 313.264C30.4216 312.016 31.5536 311.391 33.0349 311.391ZM29.9534 318.657C29.9534 320.331 30.1072 321.641 30.4146 322.588L35.0683 313.47C34.5791 312.825 33.9013 312.503 33.0349 312.503C32.0706 312.503 31.316 313.01 30.771 314.026C30.2259 315.027 29.9534 316.571 29.9534 318.657ZM33.0349 324.81C34.0131 324.81 34.7748 324.31 35.3198 323.308C35.8648 322.293 36.1373 320.742 36.1373 318.657C36.1373 316.887 35.9627 315.514 35.6133 314.54L30.9596 323.74C31.4627 324.454 32.1545 324.81 33.0349 324.81Z" fill="url(#paint2_linear_175_198)" fill-opacity="0.6"/>
<path d="M34.2926 348.168H37.3741V349.259H29.3874V348.168H32.9511V336.601L29.5551 338.597L28.9682 337.671L33.1607 335.119H34.2926V348.168Z" fill="url(#paint3_linear_175_198)" fill-opacity="0.6"/>
<path d="M34.2926 371.69H37.3741V372.781H29.3874V371.69H32.9511V360.123L29.5551 362.119L28.9682 361.193L33.1607 358.641H34.2926V371.69Z" fill="url(#paint4_linear_175_198)" fill-opacity="0.6"/>
<path d="M33.0349 381.957C34.5302 381.957 35.6622 382.581 36.4308 383.83C37.2134 385.065 37.6047 386.862 37.6047 389.222C37.6047 391.582 37.2134 393.387 36.4308 394.635C35.6622 395.884 34.5302 396.508 33.0349 396.508C31.5536 396.508 30.4216 395.884 29.639 394.635C28.8564 393.387 28.4651 391.582 28.4651 389.222C28.4651 386.876 28.8564 385.079 29.639 383.83C30.4216 382.581 31.5536 381.957 33.0349 381.957ZM29.9534 389.222C29.9534 390.896 30.1072 392.207 30.4146 393.153L35.0683 384.036C34.5791 383.391 33.9013 383.068 33.0349 383.068C32.0706 383.068 31.316 383.576 30.771 384.591C30.2259 385.593 29.9534 387.137 29.9534 389.222ZM33.0349 395.376C34.0131 395.376 34.7748 394.875 35.3198 393.874C35.8648 392.858 36.1373 391.308 36.1373 389.222C36.1373 387.452 35.9627 386.08 35.6133 385.106L30.9596 394.306C31.4627 395.02 32.1545 395.376 33.0349 395.376Z" fill="url(#paint5_linear_175_198)" fill-opacity="0.6"/>
<path d="M34.2926 418.734H37.3741V419.824H29.3874V418.734H32.9511V407.167L29.5551 409.163L28.9682 408.237L33.1607 405.685H34.2926V418.734Z" fill="url(#paint6_linear_175_198)" fill-opacity="0.6"/>
<path d="M33.0349 429.001C34.5302 429.001 35.6622 429.625 36.4308 430.874C37.2134 432.109 37.6047 433.906 37.6047 436.266C37.6047 438.626 37.2134 440.431 36.4308 441.679C35.6622 442.928 34.5302 443.552 33.0349 443.552C31.5536 443.552 30.4216 442.928 29.639 441.679C28.8564 440.431 28.4651 438.626 28.4651 436.266C28.4651 433.92 28.8564 432.122 29.639 430.874C30.4216 429.625 31.5536 429.001 33.0349 429.001ZM29.9534 436.266C29.9534 437.94 30.1072 439.251 30.4146 440.197L35.0683 431.08C34.5791 430.435 33.9013 430.112 33.0349 430.112C32.0706 430.112 31.316 430.62 30.771 431.635C30.2259 432.637 29.9534 434.181 29.9534 436.266ZM33.0349 442.42C34.0131 442.42 34.7748 441.919 35.3198 440.918C35.8648 439.902 36.1373 438.352 36.1373 436.266C36.1373 434.496 35.9627 433.124 35.6133 432.15L30.9596 441.35C31.4627 442.063 32.1545 442.42 33.0349 442.42Z" fill="url(#paint7_linear_175_198)" fill-opacity="0.6"/>
<path d="M33.0349 452.523C34.5302 452.523 35.6622 453.147 36.4308 454.396C37.2134 455.631 37.6047 457.428 37.6047 459.788C37.6047 462.148 37.2134 463.953 36.4308 465.201C35.6622 466.45 34.5302 467.074 33.0349 467.074C31.5536 467.074 30.4216 466.45 29.639 465.201C28.8564 463.953 28.4651 462.148 28.4651 459.788C28.4651 457.442 28.8564 455.644 29.639 454.396C30.4216 453.147 31.5536 452.523 33.0349 452.523ZM29.9534 459.788C29.9534 461.462 30.1072 462.773 30.4146 463.719L35.0683 454.602C34.5791 453.957 33.9013 453.634 33.0349 453.634C32.0706 453.634 31.316 454.142 30.771 455.157C30.2259 456.159 29.9534 457.703 29.9534 459.788ZM33.0349 465.942C34.0131 465.942 34.7748 465.441 35.3198 464.44C35.8648 463.424 36.1373 461.874 36.1373 459.788C36.1373 458.018 35.9627 456.646 35.6133 455.672L30.9596 464.872C31.4627 465.585 32.1545 465.942 33.0349 465.942Z" fill="url(#paint8_linear_175_198)" fill-opacity="0.6"/>
<path d="M34.2926 489.299H37.3741V490.39H29.3874V489.299H32.9511V477.733L29.5551 479.729L28.9682 478.803L33.1607 476.251H34.2926V489.299Z" fill="url(#paint9_linear_175_198)" fill-opacity="0.6"/>
<path d="M33.0349 499.567C34.5302 499.567 35.6622 500.191 36.4308 501.44C37.2134 502.675 37.6047 504.472 37.6047 506.832C37.6047 509.192 37.2134 510.996 36.4308 512.245C35.6622 513.494 34.5302 514.118 33.0349 514.118C31.5536 514.118 30.4216 513.494 29.639 512.245C28.8564 510.996 28.4651 509.192 28.4651 506.832C28.4651 504.486 28.8564 502.688 29.639 501.44C30.4216 500.191 31.5536 499.567 33.0349 499.567ZM29.9534 506.832C29.9534 508.506 30.1072 509.816 30.4146 510.763L35.0683 501.646C34.5791 501.001 33.9013 500.678 33.0349 500.678C32.0706 500.678 31.316 501.186 30.771 502.201C30.2259 503.203 29.9534 504.746 29.9534 506.832ZM33.0349 512.986C34.0131 512.986 34.7748 512.485 35.3198 511.484C35.8648 510.468 36.1373 508.918 36.1373 506.832C36.1373 505.062 35.9627 503.69 35.6133 502.716L30.9596 511.916C31.4627 512.629 32.1545 512.986 33.0349 512.986Z" fill="url(#paint10_linear_175_198)" fill-opacity="0.6"/>
<path d="M34.2926 536.343H37.3741V537.434H29.3874V536.343H32.9511V524.776L29.5551 526.773L28.9682 525.847L33.1607 523.295H34.2926V536.343Z" fill="url(#paint11_linear_175_198)" fill-opacity="0.6"/>
<path d="M34.2926 559.865H37.3741V560.956H29.3874V559.865H32.9511V548.298L29.5551 550.295L28.9682 549.369L33.1607 546.816H34.2926V559.865Z" fill="url(#paint12_linear_175_198)" fill-opacity="0.6"/>
<path d="M71.9651 311.391C73.4604 311.391 74.5924 312.016 75.361 313.264C76.1436 314.499 76.5349 316.296 76.5349 318.657C76.5349 321.017 76.1436 322.821 75.361 324.07C74.5924 325.318 73.4604 325.942 71.9651 325.942C70.4838 325.942 69.3518 325.318 68.5692 324.07C67.7866 322.821 67.3953 321.017 67.3953 318.657C67.3953 316.31 67.7866 314.513 68.5692 313.264C69.3518 312.016 70.4838 311.391 71.9651 311.391ZM68.8836 318.657C68.8836 320.331 69.0374 321.641 69.3448 322.588L73.9985 313.47C73.5093 312.825 72.8315 312.503 71.9651 312.503C71.0008 312.503 70.2462 313.01 69.7012 314.026C69.1561 315.027 68.8836 316.571 68.8836 318.657ZM71.9651 324.81C72.9433 324.81 73.705 324.31 74.25 323.308C74.795 322.293 75.0675 320.742 75.0675 318.657C75.0675 316.887 74.8928 315.514 74.5435 314.54L69.8898 323.74C70.3929 324.454 71.0847 324.81 71.9651 324.81Z" fill="url(#paint13_linear_175_198)" fill-opacity="0.6"/>
<path d="M73.2228 348.168H76.3043V349.259H68.3176V348.168H71.8812V336.601L68.4853 338.597L67.8984 337.671L72.0909 335.119H73.2228V348.168Z" fill="url(#paint14_linear_175_198)" fill-opacity="0.6"/>
<path d="M71.9651 358.435C73.4604 358.435 74.5924 359.059 75.361 360.308C76.1436 361.543 76.5349 363.34 76.5349 365.7C76.5349 368.06 76.1436 369.865 75.361 371.113C74.5924 372.362 73.4604 372.986 71.9651 372.986C70.4838 372.986 69.3518 372.362 68.5692 371.113C67.7866 369.865 67.3953 368.06 67.3953 365.7C67.3953 363.354 67.7866 361.557 68.5692 360.308C69.3518 359.059 70.4838 358.435 71.9651 358.435ZM68.8836 365.7C68.8836 367.374 69.0374 368.685 69.3448 369.632L73.9985 360.514C73.5093 359.869 72.8315 359.546 71.9651 359.546C71.0008 359.546 70.2462 360.054 69.7012 361.07C69.1561 362.071 68.8836 363.615 68.8836 365.7ZM71.9651 371.854C72.9433 371.854 73.705 371.354 74.25 370.352C74.795 369.337 75.0675 367.786 75.0675 365.7C75.0675 363.93 74.8928 362.558 74.5435 361.584L69.8898 370.784C70.3929 371.498 71.0847 371.854 71.9651 371.854Z" fill="url(#paint15_linear_175_198)" fill-opacity="0.6"/>
<path d="M71.9651 381.957C73.4604 381.957 74.5924 382.581 75.361 383.83C76.1436 385.065 76.5349 386.862 76.5349 389.222C76.5349 391.582 76.1436 393.387 75.361 394.635C74.5924 395.884 73.4604 396.508 71.9651 396.508C70.4838 396.508 69.3518 395.884 68.5692 394.635C67.7866 393.387 67.3953 391.582 67.3953 389.222C67.3953 386.876 67.7866 385.079 68.5692 383.83C69.3518 382.581 70.4838 381.957 71.9651 381.957ZM68.8836 389.222C68.8836 390.896 69.0374 392.207 69.3448 393.153L73.9985 384.036C73.5093 383.391 72.8315 383.068 71.9651 383.068C71.0008 383.068 70.2462 383.576 69.7012 384.591C69.1561 385.593 68.8836 387.137 68.8836 389.222ZM71.9651 395.376C72.9433 395.376 73.705 394.875 74.25 393.874C74.795 392.858 75.0675 391.308 75.0675 389.222C75.0675 387.452 74.8928 386.08 74.5435 385.106L69.8898 394.306C70.3929 395.02 71.0847 395.376 71.9651 395.376Z" fill="url(#paint16_linear_175_198)" fill-opacity="0.6"/>
<path d="M73.2228 418.734H76.3043V419.824H68.3176V418.734H71.8812V407.167L68.4853 409.163L67.8984 408.237L72.0909 405.685H73.2228V418.734Z" fill="url(#paint17_linear_175_198)" fill-opacity="0.6"/>
<path d="M71.9651 429.001C73.4604 429.001 74.5924 429.625 75.361 430.874C76.1436 432.109 76.5349 433.906 76.5349 436.266C76.5349 438.626 76.1436 440.431 75.361 441.679C74.5924 442.928 73.4604 443.552 71.9651 443.552C70.4838 443.552 69.3518 442.928 68.5692 441.679C67.7866 440.431 67.3953 438.626 67.3953 436.266C67.3953 433.92 67.7866 432.122 68.5692 430.874C69.3518 429.625 70.4838 429.001 71.9651 429.001ZM68.8836 436.266C68.8836 437.94 69.0374 439.251 69.3448 440.197L73.9985 431.08C73.5093 430.435 72.8315 430.112 71.9651 430.112C71.0008 430.112 70.2462 430.62 69.7012 431.635C69.1561 432.637 68.8836 434.181 68.8836 436.266ZM71.9651 442.42C72.9433 442.42 73.705 441.919 74.25 440.918C74.795 439.902 75.0675 438.352 75.0675 436.266C75.0675 434.496 74.8928 433.124 74.5435 432.15L69.8898 441.35C70.3929 442.063 71.0847 442.42 71.9651 442.42Z" fill="url(#paint18_linear_175_198)" fill-opacity="0.6"/>
<path d="M73.2228 465.777H76.3043V466.868H68.3176V465.777H71.8812V454.211L68.4853 456.207L67.8984 455.281L72.0909 452.729H73.2228V465.777Z" fill="url(#paint19_linear_175_198)" fill-opacity="0.6"/>
<path d="M71.9651 476.045C73.4604 476.045 74.5924 476.669 75.361 477.918C76.1436 479.153 76.5349 480.95 76.5349 483.31C76.5349 485.67 76.1436 487.475 75.361 488.723C74.5924 489.972 73.4604 490.596 71.9651 490.596C70.4838 490.596 69.3518 489.972 68.5692 488.723C67.7866 487.475 67.3953 485.67 67.3953 483.31C67.3953 480.964 67.7866 479.166 68.5692 477.918C69.3518 476.669 70.4838 476.045 71.9651 476.045ZM68.8836 483.31C68.8836 484.984 69.0374 486.295 69.3448 487.241L73.9985 478.124C73.5093 477.479 72.8315 477.156 71.9651 477.156C71.0008 477.156 70.2462 477.664 69.7012 478.679C69.1561 479.681 68.8836 481.225 68.8836 483.31ZM71.9651 489.464C72.9433 489.464 73.705 488.963 74.25 487.962C74.795 486.946 75.0675 485.396 75.0675 483.31C75.0675 481.54 74.8928 480.168 74.5435 479.194L69.8898 488.394C70.3929 489.107 71.0847 489.464 71.9651 489.464Z" fill="url(#paint20_linear_175_198)" fill-opacity="0.6"/>
<path d="M71.9651 499.567C73.4604 499.567 74.5924 500.191 75.361 501.44C76.1436 502.675 76.5349 504.472 76.5349 506.832C76.5349 509.192 76.1436 510.996 75.361 512.245C74.5924 513.494 73.4604 514.118 71.9651 514.118C70.4838 514.118 69.3518 513.494 68.5692 512.245C67.7866 510.996 67.3953 509.192 67.3953 506.832C67.3953 504.486 67.7866 502.688 68.5692 501.44C69.3518 500.191 70.4838 499.567 71.9651 499.567ZM68.8836 506.832C68.8836 508.506 69.0374 509.816 69.3448 510.763L73.9985 501.646C73.5093 501.001 72.8315 500.678 71.9651 500.678C71.0008 500.678 70.2462 501.186 69.7012 502.201C69.1561 503.203 68.8836 504.746 68.8836 506.832ZM71.9651 512.986C72.9433 512.986 73.705 512.485 74.25 511.484C74.795 510.468 75.0675 508.918 75.0675 506.832C75.0675 505.062 74.8928 503.69 74.5435 502.716L69.8898 511.916C70.3929 512.629 71.0847 512.986 71.9651 512.986Z" fill="url(#paint21_linear_175_198)" fill-opacity="0.6"/>
<path d="M73.2228 536.343H76.3043V537.434H68.3176V536.343H71.8812V524.776L68.4853 526.773L67.8984 525.847L72.0909 523.295H73.2228V536.343Z" fill="url(#paint22_linear_175_198)" fill-opacity="0.6"/>
<path d="M71.9651 546.611C73.4604 546.611 74.5924 547.235 75.361 548.484C76.1436 549.719 76.5349 551.516 76.5349 553.876C76.5349 556.236 76.1436 558.04 75.361 559.289C74.5924 560.538 73.4604 561.162 71.9651 561.162C70.4838 561.162 69.3518 560.538 68.5692 559.289C67.7866 558.04 67.3953 556.236 67.3953 553.876C67.3953 551.53 67.7866 549.732 68.5692 548.484C69.3518 547.235 70.4838 546.611 71.9651 546.611ZM68.8836 553.876C68.8836 555.55 69.0374 556.86 69.3448 557.807L73.9985 548.689C73.5093 548.045 72.8315 547.722 71.9651 547.722C71.0008 547.722 70.2462 548.23 69.7012 549.245C69.1561 550.247 68.8836 551.79 68.8836 553.876ZM71.9651 560.03C72.9433 560.03 73.705 559.529 74.25 558.527C74.795 557.512 75.0675 555.962 75.0675 553.876C75.0675 552.106 74.8928 550.734 74.5435 549.76L69.8898 558.96C70.3929 559.673 71.0847 560.03 71.9651 560.03Z" fill="url(#paint23_linear_175_198)" fill-opacity="0.6"/>
<path d="M73.2228 583.387H76.3043V584.478H68.3176V583.387H71.8812V571.82L68.4853 573.817L67.8984 572.891L72.0909 570.338H73.2228V583.387Z" fill="url(#paint24_linear_175_198)" fill-opacity="0.6"/>
<path d="M73.2228 606.909H76.3043V608H68.3176V606.909H71.8812V595.342L68.4853 597.339L67.8984 596.413L72.0909 593.86H73.2228V606.909Z" fill="url(#paint25_linear_175_198)" fill-opacity="0.6"/>
<path d="M13.5698 334.913C15.0651 334.913 16.1971 335.537 16.9657 336.786C17.7483 338.021 18.1396 339.818 18.1396 342.178C18.1396 344.539 17.7483 346.343 16.9657 347.591C16.1971 348.84 15.0651 349.464 13.5698 349.464C12.0885 349.464 10.9565 348.84 10.1739 347.591C9.3913 346.343 9 344.539 9 342.178C9 339.832 9.3913 338.035 10.1739 336.786C10.9565 335.537 12.0885 334.913 13.5698 334.913ZM10.4883 342.178C10.4883 343.852 10.6421 345.163 10.9495 346.11L15.6032 336.992C15.114 336.347 14.4363 336.025 13.5698 336.025C12.6055 336.025 11.8509 336.532 11.3059 337.548C10.7608 338.549 10.4883 340.093 10.4883 342.178ZM13.5698 348.332C14.5481 348.332 15.3097 347.832 15.8547 346.83C16.3997 345.815 16.6722 344.264 16.6722 342.178C16.6722 340.408 16.4976 339.036 16.1482 338.062L11.4945 347.262C11.9976 347.976 12.6894 348.332 13.5698 348.332Z" fill="url(#paint26_linear_175_198)" fill-opacity="0.6"/>
<path d="M13.5698 358.435C15.0651 358.435 16.1971 359.059 16.9657 360.308C17.7483 361.543 18.1396 363.34 18.1396 365.7C18.1396 368.06 17.7483 369.865 16.9657 371.113C16.1971 372.362 15.0651 372.986 13.5698 372.986C12.0885 372.986 10.9565 372.362 10.1739 371.113C9.3913 369.865 9 368.06 9 365.7C9 363.354 9.3913 361.557 10.1739 360.308C10.9565 359.059 12.0885 358.435 13.5698 358.435ZM10.4883 365.7C10.4883 367.374 10.6421 368.685 10.9495 369.632L15.6032 360.514C15.114 359.869 14.4363 359.546 13.5698 359.546C12.6055 359.546 11.8509 360.054 11.3059 361.07C10.7608 362.071 10.4883 363.615 10.4883 365.7ZM13.5698 371.854C14.5481 371.854 15.3097 371.354 15.8547 370.352C16.3997 369.337 16.6722 367.786 16.6722 365.7C16.6722 363.93 16.4976 362.558 16.1482 361.584L11.4945 370.784C11.9976 371.498 12.6894 371.854 13.5698 371.854Z" fill="url(#paint27_linear_175_198)" fill-opacity="0.6"/>
<path d="M14.8276 395.212H17.909V396.302H9.92235V395.212H13.486V383.645L10.09 385.641L9.5031 384.715L13.6956 382.163H14.8276V395.212Z" fill="url(#paint28_linear_175_198)" fill-opacity="0.6"/>
<path d="M13.5698 405.479C15.0651 405.479 16.1971 406.103 16.9657 407.352C17.7483 408.587 18.1396 410.384 18.1396 412.744C18.1396 415.104 17.7483 416.909 16.9657 418.157C16.1971 419.406 15.0651 420.03 13.5698 420.03C12.0885 420.03 10.9565 419.406 10.1739 418.157C9.3913 416.909 9 415.104 9 412.744C9 410.398 9.3913 408.601 10.1739 407.352C10.9565 406.103 12.0885 405.479 13.5698 405.479ZM10.4883 412.744C10.4883 414.418 10.6421 415.729 10.9495 416.675L15.6032 407.558C15.114 406.913 14.4363 406.59 13.5698 406.59C12.6055 406.59 11.8509 407.098 11.3059 408.113C10.7608 409.115 10.4883 410.659 10.4883 412.744ZM13.5698 418.898C14.5481 418.898 15.3097 418.397 15.8547 417.396C16.3997 416.38 16.6722 414.83 16.6722 412.744C16.6722 410.974 16.4976 409.602 16.1482 408.628L11.4945 417.828C11.9976 418.542 12.6894 418.898 13.5698 418.898Z" fill="url(#paint29_linear_175_198)" fill-opacity="0.6"/>
<path d="M14.8276 442.256H17.909V443.346H9.92235V442.256H13.486V430.689L10.09 432.685L9.5031 431.759L13.6956 429.207H14.8276V442.256Z" fill="url(#paint30_linear_175_198)" fill-opacity="0.6"/>
<path d="M14.8276 465.777H17.909V466.868H9.92235V465.777H13.486V454.211L10.09 456.207L9.5031 455.281L13.6956 452.729H14.8276V465.777Z" fill="url(#paint31_linear_175_198)" fill-opacity="0.6"/>
<path d="M53.7577 301.124H56.8392V302.215H48.8525V301.124H52.4162V289.557L49.0202 291.553L48.4333 290.627L52.6258 288.075H53.7577V301.124Z" fill="url(#paint32_linear_175_198)" fill-opacity="0.6"/>
<path d="M52.5 311.391C53.9953 311.391 55.1273 312.016 55.8959 313.264C56.6785 314.499 57.0698 316.296 57.0698 318.657C57.0698 321.017 56.6785 322.821 55.8959 324.07C55.1273 325.318 53.9953 325.942 52.5 325.942C51.0187 325.942 49.8867 325.318 49.1041 324.07C48.3215 322.821 47.9302 321.017 47.9302 318.657C47.9302 316.31 48.3215 314.513 49.1041 313.264C49.8867 312.016 51.0187 311.391 52.5 311.391ZM49.4185 318.657C49.4185 320.331 49.5723 321.641 49.8797 322.588L54.5334 313.47C54.0442 312.825 53.3664 312.503 52.5 312.503C51.5357 312.503 50.7811 313.01 50.2361 314.026C49.691 315.027 49.4185 316.571 49.4185 318.657ZM52.5 324.81C53.4782 324.81 54.2399 324.31 54.7849 323.308C55.3299 322.293 55.6024 320.742 55.6024 318.657C55.6024 316.887 55.4277 315.514 55.0784 314.54L50.4247 323.74C50.9278 324.454 51.6196 324.81 52.5 324.81Z" fill="url(#paint33_linear_175_198)" fill-opacity="0.6"/>
<path d="M53.7577 348.168H56.8392V349.259H48.8525V348.168H52.4162V336.601L49.0202 338.597L48.4333 337.671L52.6258 335.119H53.7577V348.168Z" fill="url(#paint34_linear_175_198)" fill-opacity="0.6"/>
<path d="M53.7577 371.69H56.8392V372.781H48.8525V371.69H52.4162V360.123L49.0202 362.119L48.4333 361.193L52.6258 358.641H53.7577V371.69Z" fill="url(#paint35_linear_175_198)" fill-opacity="0.6"/>
<path d="M52.5 381.957C53.9953 381.957 55.1273 382.581 55.8959 383.83C56.6785 385.065 57.0698 386.862 57.0698 389.222C57.0698 391.582 56.6785 393.387 55.8959 394.635C55.1273 395.884 53.9953 396.508 52.5 396.508C51.0187 396.508 49.8867 395.884 49.1041 394.635C48.3215 393.387 47.9302 391.582 47.9302 389.222C47.9302 386.876 48.3215 385.079 49.1041 383.83C49.8867 382.581 51.0187 381.957 52.5 381.957ZM49.4185 389.222C49.4185 390.896 49.5723 392.207 49.8797 393.153L54.5334 384.036C54.0442 383.391 53.3664 383.068 52.5 383.068C51.5357 383.068 50.7811 383.576 50.2361 384.591C49.691 385.593 49.4185 387.137 49.4185 389.222ZM52.5 395.376C53.4782 395.376 54.2399 394.875 54.7849 393.874C55.3299 392.858 55.6024 391.308 55.6024 389.222C55.6024 387.452 55.4277 386.08 55.0784 385.106L50.4247 394.306C50.9278 395.02 51.6196 395.376 52.5 395.376Z" fill="url(#paint36_linear_175_198)" fill-opacity="0.6"/>
<path d="M53.7577 418.734H56.8392V419.824H48.8525V418.734H52.4162V407.167L49.0202 409.163L48.4333 408.237L52.6258 405.685H53.7577V418.734Z" fill="url(#paint37_linear_175_198)" fill-opacity="0.6"/>
<path d="M53.7577 442.256H56.8392V443.346H48.8525V442.256H52.4162V430.689L49.0202 432.685L48.4333 431.759L52.6258 429.207H53.7577V442.256Z" fill="url(#paint38_linear_175_198)" fill-opacity="0.6"/>
<path d="M52.5 452.523C53.9953 452.523 55.1273 453.147 55.8959 454.396C56.6785 455.631 57.0698 457.428 57.0698 459.788C57.0698 462.148 56.6785 463.953 55.8959 465.201C55.1273 466.45 53.9953 467.074 52.5 467.074C51.0187 467.074 49.8867 466.45 49.1041 465.201C48.3215 463.953 47.9302 462.148 47.9302 459.788C47.9302 457.442 48.3215 455.644 49.1041 454.396C49.8867 453.147 51.0187 452.523 52.5 452.523ZM49.4185 459.788C49.4185 461.462 49.5723 462.773 49.8797 463.719L54.5334 454.602C54.0442 453.957 53.3664 453.634 52.5 453.634C51.5357 453.634 50.7811 454.142 50.2361 455.157C49.691 456.159 49.4185 457.703 49.4185 459.788ZM52.5 465.942C53.4782 465.942 54.2399 465.441 54.7849 464.44C55.3299 463.424 55.6024 461.874 55.6024 459.788C55.6024 458.018 55.4277 456.646 55.0784 455.672L50.4247 464.872C50.9278 465.585 51.6196 465.942 52.5 465.942Z" fill="url(#paint39_linear_175_198)" fill-opacity="0.6"/>
<path d="M53.7577 489.299H56.8392V490.39H48.8525V489.299H52.4162V477.733L49.0202 479.729L48.4333 478.803L52.6258 476.251H53.7577V489.299Z" fill="url(#paint40_linear_175_198)" fill-opacity="0.6"/>
<path d="M52.5 499.567C53.9953 499.567 55.1273 500.191 55.8959 501.44C56.6785 502.675 57.0698 504.472 57.0698 506.832C57.0698 509.192 56.6785 510.996 55.8959 512.245C55.1273 513.494 53.9953 514.118 52.5 514.118C51.0187 514.118 49.8867 513.494 49.1041 512.245C48.3215 510.996 47.9302 509.192 47.9302 506.832C47.9302 504.486 48.3215 502.688 49.1041 501.44C49.8867 500.191 51.0187 499.567 52.5 499.567ZM49.4185 506.832C49.4185 508.506 49.5723 509.816 49.8797 510.763L54.5334 501.646C54.0442 501.001 53.3664 500.678 52.5 500.678C51.5357 500.678 50.7811 501.186 50.2361 502.201C49.691 503.203 49.4185 504.746 49.4185 506.832ZM52.5 512.986C53.4782 512.986 54.2399 512.485 54.7849 511.484C55.3299 510.468 55.6024 508.918 55.6024 506.832C55.6024 505.062 55.4277 503.69 55.0784 502.716L50.4247 511.916C50.9278 512.629 51.6196 512.986 52.5 512.986Z" fill="url(#paint41_linear_175_198)" fill-opacity="0.6"/>
<path d="M91.4302 287.869C92.9255 287.869 94.0575 288.494 94.8261 289.742C95.6087 290.977 96 292.775 96 295.135C96 297.495 95.6087 299.299 94.8261 300.548C94.0575 301.796 92.9255 302.421 91.4302 302.421C89.9489 302.421 88.8169 301.796 88.0343 300.548C87.2517 299.299 86.8604 297.495 86.8604 295.135C86.8604 292.788 87.2517 290.991 88.0343 289.742C88.8169 288.494 89.9489 287.869 91.4302 287.869ZM88.3487 295.135C88.3487 296.809 88.5024 298.119 88.8099 299.066L93.4636 289.948C92.9744 289.303 92.2966 288.981 91.4302 288.981C90.4659 288.981 89.7113 289.488 89.1663 290.504C88.6212 291.505 88.3487 293.049 88.3487 295.135ZM91.4302 301.289C92.4084 301.289 93.1701 300.788 93.7151 299.786C94.2601 298.771 94.5326 297.22 94.5326 295.135C94.5326 293.365 94.3579 291.992 94.0086 291.018L89.3549 300.218C89.858 300.932 90.5498 301.289 91.4302 301.289Z" fill="url(#paint42_linear_175_198)" fill-opacity="0.6"/>
<path d="M92.6879 324.646H95.7694V325.737H87.7827V324.646H91.3463V313.079L87.9504 315.075L87.3635 314.149L91.556 311.597H92.6879V324.646Z" fill="url(#paint43_linear_175_198)" fill-opacity="0.6"/>
<path d="M92.6879 348.168H95.7694V349.259H87.7827V348.168H91.3463V336.601L87.9504 338.597L87.3635 337.671L91.556 335.119H92.6879V348.168Z" fill="url(#paint44_linear_175_198)" fill-opacity="0.6"/>
<path d="M91.4302 358.435C92.9255 358.435 94.0575 359.059 94.8261 360.308C95.6087 361.543 96 363.34 96 365.7C96 368.06 95.6087 369.865 94.8261 371.113C94.0575 372.362 92.9255 372.986 91.4302 372.986C89.9489 372.986 88.8169 372.362 88.0343 371.113C87.2517 369.865 86.8604 368.06 86.8604 365.7C86.8604 363.354 87.2517 361.557 88.0343 360.308C88.8169 359.059 89.9489 358.435 91.4302 358.435ZM88.3487 365.7C88.3487 367.374 88.5024 368.685 88.8099 369.632L93.4636 360.514C92.9744 359.869 92.2966 359.546 91.4302 359.546C90.4659 359.546 89.7113 360.054 89.1663 361.07C88.6212 362.071 88.3487 363.615 88.3487 365.7ZM91.4302 371.854C92.4084 371.854 93.1701 371.354 93.7151 370.352C94.2601 369.337 94.5326 367.786 94.5326 365.7C94.5326 363.93 94.3579 362.558 94.0086 361.584L89.3549 370.784C89.858 371.498 90.5498 371.854 91.4302 371.854Z" fill="url(#paint45_linear_175_198)" fill-opacity="0.6"/>
<path d="M91.4302 381.957C92.9255 381.957 94.0575 382.581 94.8261 383.83C95.6087 385.065 96 386.862 96 389.222C96 391.582 95.6087 393.387 94.8261 394.635C94.0575 395.884 92.9255 396.508 91.4302 396.508C89.9489 396.508 88.8169 395.884 88.0343 394.635C87.2517 393.387 86.8604 391.582 86.8604 389.222C86.8604 386.876 87.2517 385.079 88.0343 383.83C88.8169 382.581 89.9489 381.957 91.4302 381.957ZM88.3487 389.222C88.3487 390.896 88.5024 392.207 88.8099 393.153L93.4636 384.036C92.9744 383.391 92.2966 383.068 91.4302 383.068C90.4659 383.068 89.7113 383.576 89.1663 384.591C88.6212 385.593 88.3487 387.137 88.3487 389.222ZM91.4302 395.376C92.4084 395.376 93.1701 394.875 93.7151 393.874C94.2601 392.858 94.5326 391.308 94.5326 389.222C94.5326 387.452 94.3579 386.08 94.0086 385.106L89.3549 394.306C89.858 395.02 90.5498 395.376 91.4302 395.376Z" fill="url(#paint46_linear_175_198)" fill-opacity="0.6"/>
<g opacity="0.6">
<path d="M919.93 -32.7589C921.356 -32.7589 922.436 -32.1597 923.17 -30.9615C923.916 -29.7764 924.29 -28.0515 924.29 -25.7866C924.29 -23.5218 923.916 -21.7903 923.17 -20.592C922.436 -19.3938 921.356 -18.7947 919.93 -18.7947C918.517 -18.7947 917.437 -19.3938 916.69 -20.592C915.943 -21.7903 915.57 -23.5218 915.57 -25.7866C915.57 -28.0383 915.943 -29.7632 916.69 -30.9615C917.437 -32.1597 918.517 -32.7589 919.93 -32.7589ZM916.99 -25.7866C916.99 -24.1802 917.137 -22.9227 917.43 -22.0141L921.87 -30.764C921.403 -31.3828 920.756 -31.6923 919.93 -31.6923C919.01 -31.6923 918.29 -31.2051 917.77 -30.2307C917.25 -29.2695 916.99 -27.7881 916.99 -25.7866ZM919.93 -19.881C920.863 -19.881 921.59 -20.3616 922.11 -21.3228C922.63 -22.2972 922.89 -23.7852 922.89 -25.7866C922.89 -27.4852 922.723 -28.802 922.39 -29.7369L917.95 -20.9081C918.43 -20.2233 919.09 -19.881 919.93 -19.881Z" fill="url(#paint47_linear_175_198)"/>
<path d="M921.13 2.53394H924.07V3.58076H916.45V2.53394H919.85V-8.5663L916.61 -6.65043L916.05 -7.53924L920.05 -9.9884H921.13V2.53394Z" fill="url(#paint48_linear_175_198)"/>
<path d="M919.93 12.387C921.356 12.387 922.436 12.9861 923.17 14.1844C923.916 15.3695 924.29 17.0944 924.29 19.3592C924.29 21.6241 923.916 23.3556 923.17 24.5538C922.436 25.7521 921.356 26.3512 919.93 26.3512C918.517 26.3512 917.437 25.7521 916.69 24.5538C915.943 23.3556 915.57 21.6241 915.57 19.3592C915.57 17.1076 915.943 15.3826 916.69 14.1844C917.437 12.9861 918.517 12.387 919.93 12.387ZM916.99 19.3592C916.99 20.9657 917.137 22.2232 917.43 23.1317L921.87 14.3819C921.403 13.763 920.756 13.4536 919.93 13.4536C919.01 13.4536 918.29 13.9408 917.77 14.9152C917.25 15.8764 916.99 17.3578 916.99 19.3592ZM919.93 25.2649C920.863 25.2649 921.59 24.7843 922.11 23.823C922.63 22.8486 922.89 21.3607 922.89 19.3592C922.89 17.6606 922.723 16.3439 922.39 15.409L917.95 24.2378C918.43 24.9225 919.09 25.2649 919.93 25.2649Z" fill="url(#paint49_linear_175_198)"/>
<path d="M921.13 47.6798H924.07V48.7266H916.45V47.6798H919.85V36.5796L916.61 38.4954L916.05 37.6066L920.05 35.1575H921.13V47.6798Z" fill="url(#paint50_linear_175_198)"/>
<path d="M921.13 70.2527H924.07V71.2996H916.45V70.2527H919.85V59.1525L916.61 61.0684L916.05 60.1796L920.05 57.7304H921.13V70.2527Z" fill="url(#paint51_linear_175_198)"/>
<path d="M919.93 80.1058C921.356 80.1058 922.436 80.705 923.17 81.9032C923.916 83.0883 924.29 84.8132 924.29 87.0781C924.29 89.3429 923.916 91.0744 923.17 92.2726C922.436 93.4709 921.356 94.07 919.93 94.07C918.517 94.07 917.437 93.4709 916.69 92.2726C915.943 91.0744 915.57 89.3429 915.57 87.0781C915.57 84.8264 915.943 83.1015 916.69 81.9032C917.437 80.705 918.517 80.1058 919.93 80.1058ZM916.99 87.0781C916.99 88.6845 917.137 89.942 917.43 90.8505L921.87 82.1007C921.403 81.4818 920.756 81.1724 919.93 81.1724C919.01 81.1724 918.29 81.6596 917.77 82.634C917.25 83.5952 916.99 85.0766 916.99 87.0781ZM919.93 92.9837C920.863 92.9837 921.59 92.5031 922.11 91.5419C922.63 90.5675 922.89 89.0795 922.89 87.0781C922.89 85.3794 922.723 84.0627 922.39 83.1278L917.95 91.9566C918.43 92.6413 919.09 92.9837 919.93 92.9837Z" fill="url(#paint52_linear_175_198)"/>
<path d="M921.13 115.399H924.07V116.445H916.45V115.399H919.85V104.298L916.61 106.214L916.05 105.325L920.05 102.876H921.13V115.399Z" fill="url(#paint53_linear_175_198)"/>
<path d="M919.93 125.252C921.356 125.252 922.436 125.851 923.17 127.049C923.916 128.234 924.29 129.959 924.29 132.224C924.29 134.489 923.916 136.22 923.17 137.419C922.436 138.617 921.356 139.216 919.93 139.216C918.517 139.216 917.437 138.617 916.69 137.419C915.943 136.22 915.57 134.489 915.57 132.224C915.57 129.972 915.943 128.247 916.69 127.049C917.437 125.851 918.517 125.252 919.93 125.252ZM916.99 132.224C916.99 133.83 917.137 135.088 917.43 135.996L921.87 127.247C921.403 126.628 920.756 126.318 919.93 126.318C919.01 126.318 918.29 126.805 917.77 127.78C917.25 128.741 916.99 130.222 916.99 132.224ZM919.93 138.13C920.863 138.13 921.59 137.649 922.11 136.688C922.63 135.713 922.89 134.225 922.89 132.224C922.89 130.525 922.723 129.209 922.39 128.274L917.95 137.103C918.43 137.787 919.09 138.13 919.93 138.13Z" fill="url(#paint54_linear_175_198)"/>
<path d="M919.93 147.825C921.356 147.825 922.436 148.424 923.17 149.622C923.916 150.807 924.29 152.532 924.29 154.797C924.29 157.062 923.916 158.793 923.17 159.991C922.436 161.19 921.356 161.789 919.93 161.789C918.517 161.789 917.437 161.19 916.69 159.991C915.943 158.793 915.57 157.062 915.57 154.797C915.57 152.545 915.943 150.82 916.69 149.622C917.437 148.424 918.517 147.825 919.93 147.825ZM916.99 154.797C916.99 156.403 917.137 157.661 917.43 158.569L921.87 149.82C921.403 149.201 920.756 148.891 919.93 148.891C919.01 148.891 918.29 149.378 917.77 150.353C917.25 151.314 916.99 152.795 916.99 154.797ZM919.93 160.703C920.863 160.703 921.59 160.222 922.11 159.261C922.63 158.286 922.89 156.798 922.89 154.797C922.89 153.098 922.723 151.781 922.39 150.847L917.95 159.675C918.43 160.36 919.09 160.703 919.93 160.703Z" fill="url(#paint55_linear_175_198)"/>
<path d="M921.13 183.117H924.07V184.164H916.45V183.117H919.85V172.017L916.61 173.933L916.05 173.044L920.05 170.595H921.13V183.117Z" fill="url(#paint56_linear_175_198)"/>
<path d="M919.93 192.971C921.356 192.971 922.436 193.57 923.17 194.768C923.916 195.953 924.29 197.678 924.29 199.943C924.29 202.208 923.916 203.939 923.17 205.137C922.436 206.336 921.356 206.935 919.93 206.935C918.517 206.935 917.437 206.336 916.69 205.137C915.943 203.939 915.57 202.208 915.57 199.943C915.57 197.691 915.943 195.966 916.69 194.768C917.437 193.57 918.517 192.971 919.93 192.971ZM916.99 199.943C916.99 201.549 917.137 202.807 917.43 203.715L921.87 194.965C921.403 194.347 920.756 194.037 919.93 194.037C919.01 194.037 918.29 194.524 917.77 195.499C917.25 196.46 916.99 197.941 916.99 199.943ZM919.93 205.848C920.863 205.848 921.59 205.368 922.11 204.407C922.63 203.432 922.89 201.944 922.89 199.943C922.89 198.244 922.723 196.927 922.39 195.992L917.95 204.821C918.43 205.506 919.09 205.848 919.93 205.848Z" fill="url(#paint57_linear_175_198)"/>
<path d="M921.13 228.263H924.07V229.31H916.45V228.263H919.85V217.163L916.61 219.079L916.05 218.19L920.05 215.741H921.13V228.263Z" fill="url(#paint58_linear_175_198)"/>
<path d="M921.13 250.836H924.07V251.883H916.45V250.836H919.85V239.736L916.61 241.652L916.05 240.763L920.05 238.314H921.13V250.836Z" fill="url(#paint59_linear_175_198)"/>
<path d="M957.07 12.387C958.497 12.387 959.577 12.9861 960.31 14.1844C961.057 15.3695 961.43 17.0944 961.43 19.3592C961.43 21.6241 961.057 23.3556 960.31 24.5538C959.577 25.7521 958.497 26.3512 957.07 26.3512C955.657 26.3512 954.577 25.7521 953.83 24.5538C953.084 23.3556 952.71 21.6241 952.71 19.3592C952.71 17.1076 953.084 15.3826 953.83 14.1844C954.577 12.9861 955.657 12.387 957.07 12.387ZM954.13 19.3592C954.13 20.9657 954.277 22.2232 954.57 23.1317L959.01 14.3819C958.543 13.763 957.897 13.4536 957.07 13.4536C956.15 13.4536 955.43 13.9408 954.91 14.9152C954.39 15.8764 954.13 17.3578 954.13 19.3592ZM957.07 25.2649C958.003 25.2649 958.73 24.7843 959.25 23.823C959.77 22.8486 960.03 21.3607 960.03 19.3592C960.03 17.6606 959.863 16.3439 959.53 15.409L955.09 24.2378C955.57 24.9225 956.23 25.2649 957.07 25.2649Z" fill="url(#paint60_linear_175_198)"/>
<path d="M958.27 47.6798H961.21V48.7266H953.59V47.6798H956.99V36.5796L953.75 38.4954L953.19 37.6066L957.19 35.1575H958.27V47.6798Z" fill="url(#paint61_linear_175_198)"/>
<path d="M957.07 57.5329C958.497 57.5329 959.577 58.132 960.31 59.3303C961.057 60.5153 961.43 62.2403 961.43 64.5051C961.43 66.7699 961.057 68.5015 960.31 69.6997C959.577 70.898 958.497 71.4971 957.07 71.4971C955.657 71.4971 954.577 70.898 953.83 69.6997C953.084 68.5015 952.71 66.7699 952.71 64.5051C952.71 62.2535 953.084 60.5285 953.83 59.3303C954.577 58.132 955.657 57.5329 957.07 57.5329ZM954.13 64.5051C954.13 66.1116 954.277 67.369 954.57 68.2776L959.01 59.5278C958.543 58.9089 957.897 58.5995 957.07 58.5995C956.15 58.5995 955.43 59.0867 954.91 60.0611C954.39 61.0223 954.13 62.5036 954.13 64.5051ZM957.07 70.4108C958.003 70.4108 958.73 69.9301 959.25 68.9689C959.77 67.9945 960.03 66.5066 960.03 64.5051C960.03 62.8065 959.863 61.4897 959.53 60.5548L955.09 69.3837C955.57 70.0684 956.23 70.4108 957.07 70.4108Z" fill="url(#paint62_linear_175_198)"/>
<path d="M957.07 80.1058C958.497 80.1058 959.577 80.705 960.31 81.9032C961.057 83.0883 961.43 84.8132 961.43 87.0781C961.43 89.3429 961.057 91.0744 960.31 92.2726C959.577 93.4709 958.497 94.07 957.07 94.07C955.657 94.07 954.577 93.4709 953.83 92.2726C953.084 91.0744 952.71 89.3429 952.71 87.0781C952.71 84.8264 953.084 83.1015 953.83 81.9032C954.577 80.705 955.657 80.1058 957.07 80.1058ZM954.13 87.0781C954.13 88.6845 954.277 89.942 954.57 90.8505L959.01 82.1007C958.543 81.4818 957.897 81.1724 957.07 81.1724C956.15 81.1724 955.43 81.6596 954.91 82.634C954.39 83.5952 954.13 85.0766 954.13 87.0781ZM957.07 92.9837C958.003 92.9837 958.73 92.5031 959.25 91.5419C959.77 90.5675 960.03 89.0795 960.03 87.0781C960.03 85.3794 959.863 84.0627 959.53 83.1278L955.09 91.9566C955.57 92.6413 956.23 92.9837 957.07 92.9837Z" fill="url(#paint63_linear_175_198)"/>
<path d="M958.27 115.399H961.21V116.445H953.59V115.399H956.99V104.298L953.75 106.214L953.19 105.325L957.19 102.876H958.27V115.399Z" fill="url(#paint64_linear_175_198)"/>
<path d="M957.07 125.252C958.497 125.252 959.577 125.851 960.31 127.049C961.057 128.234 961.43 129.959 961.43 132.224C961.43 134.489 961.057 136.22 960.31 137.419C959.577 138.617 958.497 139.216 957.07 139.216C955.657 139.216 954.577 138.617 953.83 137.419C953.084 136.22 952.71 134.489 952.71 132.224C952.71 129.972 953.084 128.247 953.83 127.049C954.577 125.851 955.657 125.252 957.07 125.252ZM954.13 132.224C954.13 133.83 954.277 135.088 954.57 135.996L959.01 127.247C958.543 126.628 957.897 126.318 957.07 126.318C956.15 126.318 955.43 126.805 954.91 127.78C954.39 128.741 954.13 130.222 954.13 132.224ZM957.07 138.13C958.003 138.13 958.73 137.649 959.25 136.688C959.77 135.713 960.03 134.225 960.03 132.224C960.03 130.525 959.863 129.209 959.53 128.274L955.09 137.103C955.57 137.787 956.23 138.13 957.07 138.13Z" fill="url(#paint65_linear_175_198)"/>
<path d="M958.27 160.545H961.21V161.591H953.59V160.545H956.99V149.444L953.75 151.36L953.19 150.471L957.19 148.022H958.27V160.545Z" fill="url(#paint66_linear_175_198)"/>
<path d="M957.07 170.398C958.497 170.398 959.577 170.997 960.31 172.195C961.057 173.38 961.43 175.105 961.43 177.37C961.43 179.635 961.057 181.366 960.31 182.564C959.577 183.763 958.497 184.362 957.07 184.362C955.657 184.362 954.577 183.763 953.83 182.564C953.084 181.366 952.71 179.635 952.71 177.37C952.71 175.118 953.084 173.393 953.83 172.195C954.577 170.997 955.657 170.398 957.07 170.398ZM954.13 177.37C954.13 178.976 954.277 180.234 954.57 181.142L959.01 172.392C958.543 171.774 957.897 171.464 957.07 171.464C956.15 171.464 955.43 171.951 954.91 172.926C954.39 173.887 954.13 175.368 954.13 177.37ZM957.07 183.275C958.003 183.275 958.73 182.795 959.25 181.834C959.77 180.859 960.03 179.371 960.03 177.37C960.03 175.671 959.863 174.354 959.53 173.42L955.09 182.248C955.57 182.933 956.23 183.275 957.07 183.275Z" fill="url(#paint67_linear_175_198)"/>
<path d="M957.07 192.971C958.497 192.971 959.577 193.57 960.31 194.768C961.057 195.953 961.43 197.678 961.43 199.943C961.43 202.208 961.057 203.939 960.31 205.137C959.577 206.336 958.497 206.935 957.07 206.935C955.657 206.935 954.577 206.336 953.83 205.137C953.084 203.939 952.71 202.208 952.71 199.943C952.71 197.691 953.084 195.966 953.83 194.768C954.577 193.57 955.657 192.971 957.07 192.971ZM954.13 199.943C954.13 201.549 954.277 202.807 954.57 203.715L959.01 194.965C958.543 194.347 957.897 194.037 957.07 194.037C956.15 194.037 955.43 194.524 954.91 195.499C954.39 196.46 954.13 197.941 954.13 199.943ZM957.07 205.848C958.003 205.848 958.73 205.368 959.25 204.407C959.77 203.432 960.03 201.944 960.03 199.943C960.03 198.244 959.863 196.927 959.53 195.992L955.09 204.821C955.57 205.506 956.23 205.848 957.07 205.848Z" fill="url(#paint68_linear_175_198)"/>
<path d="M958.27 228.263H961.21V229.31H953.59V228.263H956.99V217.163L953.75 219.079L953.19 218.19L957.19 215.741H958.27V228.263Z" fill="url(#paint69_linear_175_198)"/>
<path d="M957.07 238.116C958.497 238.116 959.577 238.716 960.31 239.914C961.057 241.099 961.43 242.824 961.43 245.089C961.43 247.353 961.057 249.085 960.31 250.283C959.577 251.481 958.497 252.081 957.07 252.081C955.657 252.081 954.577 251.481 953.83 250.283C953.084 249.085 952.71 247.353 952.71 245.089C952.71 242.837 953.084 241.112 953.83 239.914C954.577 238.716 955.657 238.116 957.07 238.116ZM954.13 245.089C954.13 246.695 954.277 247.953 954.57 248.861L959.01 240.111C958.543 239.492 957.897 239.183 957.07 239.183C956.15 239.183 955.43 239.67 954.91 240.645C954.39 241.606 954.13 243.087 954.13 245.089ZM957.07 250.994C958.003 250.994 958.73 250.514 959.25 249.552C959.77 248.578 960.03 247.09 960.03 245.089C960.03 243.39 959.863 242.073 959.53 241.138L955.09 249.967C955.57 250.652 956.23 250.994 957.07 250.994Z" fill="url(#paint70_linear_175_198)"/>
<path d="M958.27 273.409H961.21V274.456H953.59V273.409H956.99V262.309L953.75 264.225L953.19 263.336L957.19 260.887H958.27V273.409Z" fill="url(#paint71_linear_175_198)"/>
<path d="M958.27 295.982H961.21V297.029H953.59V295.982H956.99V284.882L953.75 286.798L953.19 285.909L957.19 283.46H958.27V295.982Z" fill="url(#paint72_linear_175_198)"/>
<path d="M901.36 34.96C902.786 34.96 903.866 35.5591 904.599 36.7573C905.346 37.9424 905.719 39.6674 905.719 41.9322C905.719 44.197 905.346 45.9285 904.599 47.1268C903.866 48.325 902.786 48.9241 901.36 48.9241C899.946 48.9241 898.867 48.325 898.12 47.1268C897.373 45.9285 897 44.197 897 41.9322C897 39.6805 897.373 37.9556 898.12 36.7573C898.867 35.5591 899.946 34.96 901.36 34.96ZM898.42 41.9322C898.42 43.5386 898.567 44.7961 898.86 45.7047L903.3 36.9548C902.833 36.336 902.186 36.0265 901.36 36.0265C900.44 36.0265 899.72 36.5137 899.2 37.4881C898.68 38.4494 898.42 39.9307 898.42 41.9322ZM901.36 47.8378C902.293 47.8378 903.02 47.3572 903.54 46.396C904.06 45.4216 904.319 43.9336 904.319 41.9322C904.319 40.2336 904.153 38.9168 903.82 37.9819L899.38 46.8108C899.86 47.4955 900.52 47.8378 901.36 47.8378Z" fill="url(#paint73_linear_175_198)"/>
<path d="M901.36 57.5329C902.786 57.5329 903.866 58.132 904.599 59.3303C905.346 60.5153 905.719 62.2403 905.719 64.5051C905.719 66.7699 905.346 68.5015 904.599 69.6997C903.866 70.898 902.786 71.4971 901.36 71.4971C899.946 71.4971 898.867 70.898 898.12 69.6997C897.373 68.5015 897 66.7699 897 64.5051C897 62.2535 897.373 60.5285 898.12 59.3303C898.867 58.132 899.946 57.5329 901.36 57.5329ZM898.42 64.5051C898.42 66.1116 898.567 67.369 898.86 68.2776L903.3 59.5278C902.833 58.9089 902.186 58.5995 901.36 58.5995C900.44 58.5995 899.72 59.0867 899.2 60.0611C898.68 61.0223 898.42 62.5036 898.42 64.5051ZM901.36 70.4108C902.293 70.4108 903.02 69.9301 903.54 68.9689C904.06 67.9945 904.319 66.5066 904.319 64.5051C904.319 62.8065 904.153 61.4897 903.82 60.5548L899.38 69.3837C899.86 70.0684 900.52 70.4108 901.36 70.4108Z" fill="url(#paint74_linear_175_198)"/>
<path d="M902.56 92.8257H905.499V93.8725H897.88V92.8257H901.28V81.7254L898.04 83.6413L897.48 82.7525L901.48 80.3033H902.56V92.8257Z" fill="url(#paint75_linear_175_198)"/>
<path d="M901.36 102.679C902.786 102.679 903.866 103.278 904.599 104.476C905.346 105.661 905.719 107.386 905.719 109.651C905.719 111.916 905.346 113.647 904.599 114.846C903.866 116.044 902.786 116.643 901.36 116.643C899.946 116.643 898.867 116.044 898.12 114.846C897.373 113.647 897 111.916 897 109.651C897 107.399 897.373 105.674 898.12 104.476C898.867 103.278 899.946 102.679 901.36 102.679ZM898.42 109.651C898.42 111.257 898.567 112.515 898.86 113.423L903.3 104.674C902.833 104.055 902.186 103.745 901.36 103.745C900.44 103.745 899.72 104.233 899.2 105.207C898.68 106.168 898.42 107.65 898.42 109.651ZM901.36 115.557C902.293 115.557 903.02 115.076 903.54 114.115C904.06 113.14 904.319 111.652 904.319 109.651C904.319 107.952 904.153 106.636 903.82 105.701L899.38 114.53C899.86 115.214 900.52 115.557 901.36 115.557Z" fill="url(#paint76_linear_175_198)"/>
<path d="M902.56 137.972H905.499V139.018H897.88V137.972H901.28V126.871L898.04 128.787L897.48 127.898L901.48 125.449H902.56V137.972Z" fill="url(#paint77_linear_175_198)"/>
<path d="M902.56 160.545H905.499V161.591H897.88V160.545H901.28V149.444L898.04 151.36L897.48 150.471L901.48 148.022H902.56V160.545Z" fill="url(#paint78_linear_175_198)"/>
<path d="M939.7 2.53394H942.64V3.58076H935.02V2.53394H938.42V-8.5663L935.18 -6.65043L934.62 -7.53924L938.62 -9.9884H939.7V2.53394Z" fill="url(#paint79_linear_175_198)"/>
<path d="M938.5 12.387C939.927 12.387 941.006 12.9861 941.74 14.1844C942.486 15.3695 942.86 17.0944 942.86 19.3592C942.86 21.6241 942.486 23.3556 941.74 24.5538C941.006 25.7521 939.927 26.3512 938.5 26.3512C937.087 26.3512 936.007 25.7521 935.26 24.5538C934.514 23.3556 934.14 21.6241 934.14 19.3592C934.14 17.1076 934.514 15.3826 935.26 14.1844C936.007 12.9861 937.087 12.387 938.5 12.387ZM935.56 19.3592C935.56 20.9657 935.707 22.2232 936 23.1317L940.44 14.3819C939.973 13.763 939.327 13.4536 938.5 13.4536C937.58 13.4536 936.86 13.9408 936.34 14.9152C935.82 15.8764 935.56 17.3578 935.56 19.3592ZM938.5 25.2649C939.433 25.2649 940.16 24.7843 940.68 23.823C941.2 22.8486 941.46 21.3607 941.46 19.3592C941.46 17.6606 941.293 16.3439 940.96 15.409L936.52 24.2378C937 24.9225 937.66 25.2649 938.5 25.2649Z" fill="url(#paint80_linear_175_198)"/>
<path d="M939.7 47.6798H942.64V48.7266H935.02V47.6798H938.42V36.5796L935.18 38.4954L934.62 37.6066L938.62 35.1575H939.7V47.6798Z" fill="url(#paint81_linear_175_198)"/>
<path d="M939.7 70.2527H942.64V71.2996H935.02V70.2527H938.42V59.1525L935.18 61.0684L934.62 60.1796L938.62 57.7304H939.7V70.2527Z" fill="url(#paint82_linear_175_198)"/>
<path d="M938.5 80.1058C939.927 80.1058 941.006 80.705 941.74 81.9032C942.486 83.0883 942.86 84.8132 942.86 87.0781C942.86 89.3429 942.486 91.0744 941.74 92.2726C941.006 93.4709 939.927 94.07 938.5 94.07C937.087 94.07 936.007 93.4709 935.26 92.2726C934.514 91.0744 934.14 89.3429 934.14 87.0781C934.14 84.8264 934.514 83.1015 935.26 81.9032C936.007 80.705 937.087 80.1058 938.5 80.1058ZM935.56 87.0781C935.56 88.6845 935.707 89.942 936 90.8505L940.44 82.1007C939.973 81.4818 939.327 81.1724 938.5 81.1724C937.58 81.1724 936.86 81.6596 936.34 82.634C935.82 83.5952 935.56 85.0766 935.56 87.0781ZM938.5 92.9837C939.433 92.9837 940.16 92.5031 940.68 91.5419C941.2 90.5675 941.46 89.0795 941.46 87.0781C941.46 85.3794 941.293 84.0627 940.96 83.1278L936.52 91.9566C937 92.6413 937.66 92.9837 938.5 92.9837Z" fill="url(#paint83_linear_175_198)"/>
<path d="M939.7 115.399H942.64V116.445H935.02V115.399H938.42V104.298L935.18 106.214L934.62 105.325L938.62 102.876H939.7V115.399Z" fill="url(#paint84_linear_175_198)"/>
<path d="M939.7 137.972H942.64V139.018H935.02V137.972H938.42V126.871L935.18 128.787L934.62 127.898L938.62 125.449H939.7V137.972Z" fill="url(#paint85_linear_175_198)"/>
<path d="M938.5 147.825C939.927 147.825 941.006 148.424 941.74 149.622C942.486 150.807 942.86 152.532 942.86 154.797C942.86 157.062 942.486 158.793 941.74 159.991C941.006 161.19 939.927 161.789 938.5 161.789C937.087 161.789 936.007 161.19 935.26 159.991C934.514 158.793 934.14 157.062 934.14 154.797C934.14 152.545 934.514 150.82 935.26 149.622C936.007 148.424 937.087 147.825 938.5 147.825ZM935.56 154.797C935.56 156.403 935.707 157.661 936 158.569L940.44 149.82C939.973 149.201 939.327 148.891 938.5 148.891C937.58 148.891 936.86 149.378 936.34 150.353C935.82 151.314 935.56 152.795 935.56 154.797ZM938.5 160.703C939.433 160.703 940.16 160.222 940.68 159.261C941.2 158.286 941.46 156.798 941.46 154.797C941.46 153.098 941.293 151.781 940.96 150.847L936.52 159.675C937 160.36 937.66 160.703 938.5 160.703Z" fill="url(#paint86_linear_175_198)"/>
<path d="M939.7 183.117H942.64V184.164H935.02V183.117H938.42V172.017L935.18 173.933L934.62 173.044L938.62 170.595H939.7V183.117Z" fill="url(#paint87_linear_175_198)"/>
<path d="M938.5 192.971C939.927 192.971 941.006 193.57 941.74 194.768C942.486 195.953 942.86 197.678 942.86 199.943C942.86 202.208 942.486 203.939 941.74 205.137C941.006 206.336 939.927 206.935 938.5 206.935C937.087 206.935 936.007 206.336 935.26 205.137C934.514 203.939 934.14 202.208 934.14 199.943C934.14 197.691 934.514 195.966 935.26 194.768C936.007 193.57 937.087 192.971 938.5 192.971ZM935.56 199.943C935.56 201.549 935.707 202.807 936 203.715L940.44 194.965C939.973 194.347 939.327 194.037 938.5 194.037C937.58 194.037 936.86 194.524 936.34 195.499C935.82 196.46 935.56 197.941 935.56 199.943ZM938.5 205.848C939.433 205.848 940.16 205.368 940.68 204.407C941.2 203.432 941.46 201.944 941.46 199.943C941.46 198.244 941.293 196.927 940.96 195.992L936.52 204.821C937 205.506 937.66 205.848 938.5 205.848Z" fill="url(#paint88_linear_175_198)"/>
<path d="M975.64 -10.1859C977.067 -10.1859 978.147 -9.58679 978.88 -8.38854C979.627 -7.20346 980 -5.47852 980 -3.2137C980 -0.948881 979.627 0.782653 978.88 1.9809C978.147 3.17915 977.067 3.77827 975.64 3.77827C974.227 3.77827 973.147 3.17915 972.401 1.9809C971.654 0.782653 971.281 -0.948881 971.281 -3.2137C971.281 -5.46535 971.654 -7.1903 972.401 -8.38854C973.147 -9.58679 974.227 -10.1859 975.64 -10.1859ZM972.7 -3.2137C972.7 -1.60726 972.847 -0.349754 973.14 0.558807L977.58 -8.19103C977.114 -8.80991 976.467 -9.11934 975.64 -9.11934C974.72 -9.11934 974 -8.63214 973.48 -7.65775C972.96 -6.69651 972.7 -5.21517 972.7 -3.2137ZM975.64 2.69195C976.574 2.69195 977.3 2.21133 977.82 1.2501C978.34 0.275704 978.6 -1.21223 978.6 -3.2137C978.6 -4.91231 978.433 -6.22907 978.1 -7.16396L973.66 1.66488C974.14 2.34959 974.8 2.69195 975.64 2.69195Z" fill="url(#paint89_linear_175_198)"/>
<path d="M976.84 25.1069H979.78V26.1537H972.161V25.1069H975.56V14.0066L972.321 15.9225L971.761 15.0337L975.76 12.5845H976.84V25.1069Z" fill="url(#paint90_linear_175_198)"/>
<path d="M976.84 47.6798H979.78V48.7266H972.161V47.6798H975.56V36.5796L972.321 38.4954L971.761 37.6066L975.76 35.1575H976.84V47.6798Z" fill="url(#paint91_linear_175_198)"/>
<path d="M975.64 57.5329C977.067 57.5329 978.147 58.132 978.88 59.3303C979.627 60.5153 980 62.2403 980 64.5051C980 66.7699 979.627 68.5015 978.88 69.6997C978.147 70.898 977.067 71.4971 975.64 71.4971C974.227 71.4971 973.147 70.898 972.401 69.6997C971.654 68.5015 971.281 66.7699 971.281 64.5051C971.281 62.2535 971.654 60.5285 972.401 59.3303C973.147 58.132 974.227 57.5329 975.64 57.5329ZM972.7 64.5051C972.7 66.1116 972.847 67.369 973.14 68.2776L977.58 59.5278C977.114 58.9089 976.467 58.5995 975.64 58.5995C974.72 58.5995 974 59.0867 973.48 60.0611C972.96 61.0223 972.7 62.5036 972.7 64.5051ZM975.64 70.4108C976.574 70.4108 977.3 69.9301 977.82 68.9689C978.34 67.9945 978.6 66.5066 978.6 64.5051C978.6 62.8065 978.433 61.4897 978.1 60.5548L973.66 69.3837C974.14 70.0684 974.8 70.4108 975.64 70.4108Z" fill="url(#paint92_linear_175_198)"/>
<path d="M975.64 80.1058C977.067 80.1058 978.147 80.705 978.88 81.9032C979.627 83.0883 980 84.8132 980 87.0781C980 89.3429 979.627 91.0744 978.88 92.2726C978.147 93.4709 977.067 94.07 975.64 94.07C974.227 94.07 973.147 93.4709 972.401 92.2726C971.654 91.0744 971.281 89.3429 971.281 87.0781C971.281 84.8264 971.654 83.1015 972.401 81.9032C973.147 80.705 974.227 80.1058 975.64 80.1058ZM972.7 87.0781C972.7 88.6845 972.847 89.942 973.14 90.8505L977.58 82.1007C977.114 81.4818 976.467 81.1724 975.64 81.1724C974.72 81.1724 974 81.6596 973.48 82.634C972.96 83.5952 972.7 85.0766 972.7 87.0781ZM975.64 92.9837C976.574 92.9837 977.3 92.5031 977.82 91.5419C978.34 90.5675 978.6 89.0795 978.6 87.0781C978.6 85.3794 978.433 84.0627 978.1 83.1278L973.66 91.9566C974.14 92.6413 974.8 92.9837 975.64 92.9837Z" fill="url(#paint93_linear_175_198)"/>
</g>
<defs>
<filter id="filter0_f_175_198" x="-558.19" y="-716.19" width="2141.38" height="1493.63" filterUnits="userSpaceOnUse" color-interpolation-filters="sRGB">
<feFlood flood-opacity="0" result="BackgroundImageFix"/>
<feBlend mode="normal" in="SourceGraphic" in2="BackgroundImageFix" result="shape"/>
<feGaussianBlur stdDeviation="200.095" result="effect1_foregroundBlur_175_198"/>
</filter>
<linearGradient id="paint0_linear_175_198" x1="52.5" y1="264.347" x2="52.5" y2="572.724" gradientUnits="userSpaceOnUse">
<stop stop-color="#F7DD43"/>
<stop offset="1" stop-color="#F7DD43" stop-opacity="0"/>
</linearGradient>
<linearGradient id="paint1_linear_175_198" x1="52.5" y1="264.347" x2="52.5" y2="572.724" gradientUnits="userSpaceOnUse">
<stop stop-color="#F7DD43"/>
<stop offset="1" stop-color="#F7DD43" stop-opacity="0"/>
</linearGradient>
<linearGradient id="paint2_linear_175_198" x1="52.5" y1="264.347" x2="52.5" y2="572.724" gradientUnits="userSpaceOnUse">
<stop stop-color="#F7DD43"/>
<stop offset="1" stop-color="#F7DD43" stop-opacity="0"/>
</linearGradient>
<linearGradient id="paint3_linear_175_198" x1="52.5" y1="264.347" x2="52.5" y2="572.724" gradientUnits="userSpaceOnUse">
<stop stop-color="#F7DD43"/>
<stop offset="1" stop-color="#F7DD43" stop-opacity="0"/>
</linearGradient>
<linearGradient id="paint4_linear_175_198" x1="52.5" y1="264.347" x2="52.5" y2="572.724" gradientUnits="userSpaceOnUse">
<stop stop-color="#F7DD43"/>
<stop offset="1" stop-color="#F7DD43" stop-opacity="0"/>
</linearGradient>
<linearGradient id="paint5_linear_175_198" x1="52.5" y1="264.347" x2="52.5" y2="572.724" gradientUnits="userSpaceOnUse">
<stop stop-color="#F7DD43"/>
<stop offset="1" stop-color="#F7DD43" stop-opacity="0"/>
</linearGradient>
<linearGradient id="paint6_linear_175_198" x1="52.5" y1="264.347" x2="52.5" y2="572.724" gradientUnits="userSpaceOnUse">
<stop stop-color="#F7DD43"/>
<stop offset="1" stop-color="#F7DD43" stop-opacity="0"/>
</linearGradient>
<linearGradient id="paint7_linear_175_198" x1="52.5" y1="264.347" x2="52.5" y2="572.724" gradientUnits="userSpaceOnUse">
<stop stop-color="#F7DD43"/>
<stop offset="1" stop-color="#F7DD43" stop-opacity="0"/>
</linearGradient>
<linearGradient id="paint8_linear_175_198" x1="52.5" y1="264.347" x2="52.5" y2="572.724" gradientUnits="userSpaceOnUse">
<stop stop-color="#F7DD43"/>
<stop offset="1" stop-color="#F7DD43" stop-opacity="0"/>
</linearGradient>
<linearGradient id="paint9_linear_175_198" x1="52.5" y1="264.347" x2="52.5" y2="572.724" gradientUnits="userSpaceOnUse">
<stop stop-color="#F7DD43"/>
<stop offset="1" stop-color="#F7DD43" stop-opacity="0"/>
</linearGradient>
<linearGradient id="paint10_linear_175_198" x1="52.5" y1="264.347" x2="52.5" y2="572.724" gradientUnits="userSpaceOnUse">
<stop stop-color="#F7DD43"/>
<stop offset="1" stop-color="#F7DD43" stop-opacity="0"/>
</linearGradient>
<linearGradient id="paint11_linear_175_198" x1="52.5" y1="264.347" x2="52.5" y2="572.724" gradientUnits="userSpaceOnUse">
<stop stop-color="#F7DD43"/>
<stop offset="1" stop-color="#F7DD43" stop-opacity="0"/>
</linearGradient>
<linearGradient id="paint12_linear_175_198" x1="52.5" y1="264.347" x2="52.5" y2="572.724" gradientUnits="userSpaceOnUse">
<stop stop-color="#F7DD43"/>
<stop offset="1" stop-color="#F7DD43" stop-opacity="0"/>
</linearGradient>
<linearGradient id="paint13_linear_175_198" x1="52.5" y1="264.347" x2="52.5" y2="572.724" gradientUnits="userSpaceOnUse">
<stop stop-color="#F7DD43"/>
<stop offset="1" stop-color="#F7DD43" stop-opacity="0"/>
</linearGradient>
<linearGradient id="paint14_linear_175_198" x1="52.5" y1="264.347" x2="52.5" y2="572.724" gradientUnits="userSpaceOnUse">
<stop stop-color="#F7DD43"/>
<stop offset="1" stop-color="#F7DD43" stop-opacity="0"/>
</linearGradient>
<linearGradient id="paint15_linear_175_198" x1="52.5" y1="264.347" x2="52.5" y2="572.724" gradientUnits="userSpaceOnUse">
<stop stop-color="#F7DD43"/>
<stop offset="1" stop-color="#F7DD43" stop-opacity="0"/>
</linearGradient>
<linearGradient id="paint16_linear_175_198" x1="52.5" y1="264.347" x2="52.5" y2="572.724" gradientUnits="userSpaceOnUse">
<stop stop-color="#F7DD43"/>
<stop offset="1" stop-color="#F7DD43" stop-opacity="0"/>
</linearGradient>
<linearGradient id="paint17_linear_175_198" x1="52.5" y1="264.347" x2="52.5" y2="572.724" gradientUnits="userSpaceOnUse">
<stop stop-color="#F7DD43"/>
<stop offset="1" stop-color="#F7DD43" stop-opacity="0"/>
</linearGradient>
<linearGradient id="paint18_linear_175_198" x1="52.5" y1="264.347" x2="52.5" y2="572.724" gradientUnits="userSpaceOnUse">
<stop stop-color="#F7DD43"/>
<stop offset="1" stop-color="#F7DD43" stop-opacity="0"/>
</linearGradient>
<linearGradient id="paint19_linear_175_198" x1="52.5" y1="264.347" x2="52.5" y2="572.724" gradientUnits="userSpaceOnUse">
<stop stop-color="#F7DD43"/>
<stop offset="1" stop-color="#F7DD43" stop-opacity="0"/>
</linearGradient>
<linearGradient id="paint20_linear_175_198" x1="52.5" y1="264.347" x2="52.5" y2="572.724" gradientUnits="userSpaceOnUse">
<stop stop-color="#F7DD43"/>
<stop offset="1" stop-color="#F7DD43" stop-opacity="0"/>
</linearGradient>
<linearGradient id="paint21_linear_175_198" x1="52.5" y1="264.347" x2="52.5" y2="572.724" gradientUnits="userSpaceOnUse">
<stop stop-color="#F7DD43"/>
<stop offset="1" stop-color="#F7DD43" stop-opacity="0"/>
</linearGradient>
<linearGradient id="paint22_linear_175_198" x1="52.5" y1="264.347" x2="52.5" y2="572.724" gradientUnits="userSpaceOnUse">
<stop stop-color="#F7DD43"/>
<stop offset="1" stop-color="#F7DD43" stop-opacity="0"/>
</linearGradient>
<linearGradient id="paint23_linear_175_198" x1="52.5" y1="264.347" x2="52.5" y2="572.724" gradientUnits="userSpaceOnUse">
<stop stop-color="#F7DD43"/>
<stop offset="1" stop-color="#F7DD43" stop-opacity="0"/>
</linearGradient>
<linearGradient id="paint24_linear_175_198" x1="52.5" y1="264.347" x2="52.5" y2="572.724" gradientUnits="userSpaceOnUse">
<stop stop-color="#F7DD43"/>
<stop offset="1" stop-color="#F7DD43" stop-opacity="0"/>
</linearGradient>
<linearGradient id="paint25_linear_175_198" x1="52.5" y1="264.347" x2="52.5" y2="572.724" gradientUnits="userSpaceOnUse">
<stop stop-color="#F7DD43"/>
<stop offset="1" stop-color="#F7DD43" stop-opacity="0"/>
</linearGradient>
<linearGradient id="paint26_linear_175_198" x1="52.5" y1="264.347" x2="52.5" y2="572.724" gradientUnits="userSpaceOnUse">
<stop stop-color="#F7DD43"/>
<stop offset="1" stop-color="#F7DD43" stop-opacity="0"/>
</linearGradient>
<linearGradient id="paint27_linear_175_198" x1="52.5" y1="264.347" x2="52.5" y2="572.724" gradientUnits="userSpaceOnUse">
<stop stop-color="#F7DD43"/>
<stop offset="1" stop-color="#F7DD43" stop-opacity="0"/>
</linearGradient>
<linearGradient id="paint28_linear_175_198" x1="52.5" y1="264.347" x2="52.5" y2="572.724" gradientUnits="userSpaceOnUse">
<stop stop-color="#F7DD43"/>
<stop offset="1" stop-color="#F7DD43" stop-opacity="0"/>
</linearGradient>
<linearGradient id="paint29_linear_175_198" x1="52.5" y1="264.347" x2="52.5" y2="572.724" gradientUnits="userSpaceOnUse">
<stop stop-color="#F7DD43"/>
<stop offset="1" stop-color="#F7DD43" stop-opacity="0"/>
</linearGradient>
<linearGradient id="paint30_linear_175_198" x1="52.5" y1="264.347" x2="52.5" y2="572.724" gradientUnits="userSpaceOnUse">
<stop stop-color="#F7DD43"/>
<stop offset="1" stop-color="#F7DD43" stop-opacity="0"/>
</linearGradient>
<linearGradient id="paint31_linear_175_198" x1="52.5" y1="264.347" x2="52.5" y2="572.724" gradientUnits="userSpaceOnUse">
<stop stop-color="#F7DD43"/>
<stop offset="1" stop-color="#F7DD43" stop-opacity="0"/>
</linearGradient>
<linearGradient id="paint32_linear_175_198" x1="52.5" y1="264.347" x2="52.5" y2="572.724" gradientUnits="userSpaceOnUse">
<stop stop-color="#F7DD43"/>
<stop offset="1" stop-color="#F7DD43" stop-opacity="0"/>
</linearGradient>
<linearGradient id="paint33_linear_175_198" x1="52.5" y1="264.347" x2="52.5" y2="572.724" gradientUnits="userSpaceOnUse">
<stop stop-color="#F7DD43"/>
<stop offset="1" stop-color="#F7DD43" stop-opacity="0"/>
</linearGradient>
<linearGradient id="paint34_linear_175_198" x1="52.5" y1="264.347" x2="52.5" y2="572.724" gradientUnits="userSpaceOnUse">
<stop stop-color="#F7DD43"/>
<stop offset="1" stop-color="#F7DD43" stop-opacity="0"/>
</linearGradient>
<linearGradient id="paint35_linear_175_198" x1="52.5" y1="264.347" x2="52.5" y2="572.724" gradientUnits="userSpaceOnUse">
<stop stop-color="#F7DD43"/>
<stop offset="1" stop-color="#F7DD43" stop-opacity="0"/>
</linearGradient>
<linearGradient id="paint36_linear_175_198" x1="52.5" y1="264.347" x2="52.5" y2="572.724" gradientUnits="userSpaceOnUse">
<stop stop-color="#F7DD43"/>
<stop offset="1" stop-color="#F7DD43" stop-opacity="0"/>
</linearGradient>
<linearGradient id="paint37_linear_175_198" x1="52.5" y1="264.347" x2="52.5" y2="572.724" gradientUnits="userSpaceOnUse">
<stop stop-color="#F7DD43"/>
<stop offset="1" stop-color="#F7DD43" stop-opacity="0"/>
</linearGradient>
<linearGradient id="paint38_linear_175_198" x1="52.5" y1="264.347" x2="52.5" y2="572.724" gradientUnits="userSpaceOnUse">
<stop stop-color="#F7DD43"/>
<stop offset="1" stop-color="#F7DD43" stop-opacity="0"/>
</linearGradient>
<linearGradient id="paint39_linear_175_198" x1="52.5" y1="264.347" x2="52.5" y2="572.724" gradientUnits="userSpaceOnUse">
<stop stop-color="#F7DD43"/>
<stop offset="1" stop-color="#F7DD43" stop-opacity="0"/>
</linearGradient>
<linearGradient id="paint40_linear_175_198" x1="52.5" y1="264.347" x2="52.5" y2="572.724" gradientUnits="userSpaceOnUse">
<stop stop-color="#F7DD43"/>
<stop offset="1" stop-color="#F7DD43" stop-opacity="0"/>
</linearGradient>
<linearGradient id="paint41_linear_175_198" x1="52.5" y1="264.347" x2="52.5" y2="572.724" gradientUnits="userSpaceOnUse">
<stop stop-color="#F7DD43"/>
<stop offset="1" stop-color="#F7DD43" stop-opacity="0"/>
</linearGradient>
<linearGradient id="paint42_linear_175_198" x1="52.5" y1="264.347" x2="52.5" y2="572.724" gradientUnits="userSpaceOnUse">
<stop stop-color="#F7DD43"/>
<stop offset="1" stop-color="#F7DD43" stop-opacity="0"/>
</linearGradient>
<linearGradient id="paint43_linear_175_198" x1="52.5" y1="264.347" x2="52.5" y2="572.724" gradientUnits="userSpaceOnUse">
<stop stop-color="#F7DD43"/>
<stop offset="1" stop-color="#F7DD43" stop-opacity="0"/>
</linearGradient>
<linearGradient id="paint44_linear_175_198" x1="52.5" y1="264.347" x2="52.5" y2="572.724" gradientUnits="userSpaceOnUse">
<stop stop-color="#F7DD43"/>
<stop offset="1" stop-color="#F7DD43" stop-opacity="0"/>
</linearGradient>
<linearGradient id="paint45_linear_175_198" x1="52.5" y1="264.347" x2="52.5" y2="572.724" gradientUnits="userSpaceOnUse">
<stop stop-color="#F7DD43"/>
<stop offset="1" stop-color="#F7DD43" stop-opacity="0"/>
</linearGradient>
<linearGradient id="paint46_linear_175_198" x1="52.5" y1="264.347" x2="52.5" y2="572.724" gradientUnits="userSpaceOnUse">
<stop stop-color="#F7DD43"/>
<stop offset="1" stop-color="#F7DD43" stop-opacity="0"/>
</linearGradient>
<linearGradient id="paint47_linear_175_198" x1="938.5" y1="-32.7589" x2="938.5" y2="263.177" gradientUnits="userSpaceOnUse">
<stop stop-color="#F7DD43"/>
<stop offset="1" stop-color="#F7DD43" stop-opacity="0"/>
</linearGradient>
<linearGradient id="paint48_linear_175_198" x1="938.5" y1="-32.7589" x2="938.5" y2="263.177" gradientUnits="userSpaceOnUse">
<stop stop-color="#F7DD43"/>
<stop offset="1" stop-color="#F7DD43" stop-opacity="0"/>
</linearGradient>
<linearGradient id="paint49_linear_175_198" x1="938.5" y1="-32.7589" x2="938.5" y2="263.177" gradientUnits="userSpaceOnUse">
<stop stop-color="#F7DD43"/>
<stop offset="1" stop-color="#F7DD43" stop-opacity="0"/>
</linearGradient>
<linearGradient id="paint50_linear_175_198" x1="938.5" y1="-32.7589" x2="938.5" y2="263.177" gradientUnits="userSpaceOnUse">
<stop stop-color="#F7DD43"/>
<stop offset="1" stop-color="#F7DD43" stop-opacity="0"/>
</linearGradient>
<linearGradient id="paint51_linear_175_198" x1="938.5" y1="-32.7589" x2="938.5" y2="263.177" gradientUnits="userSpaceOnUse">
<stop stop-color="#F7DD43"/>
<stop offset="1" stop-color="#F7DD43" stop-opacity="0"/>
</linearGradient>
<linearGradient id="paint52_linear_175_198" x1="938.5" y1="-32.7589" x2="938.5" y2="263.177" gradientUnits="userSpaceOnUse">
<stop stop-color="#F7DD43"/>
<stop offset="1" stop-color="#F7DD43" stop-opacity="0"/>
</linearGradient>
<linearGradient id="paint53_linear_175_198" x1="938.5" y1="-32.7589" x2="938.5" y2="263.177" gradientUnits="userSpaceOnUse">
<stop stop-color="#F7DD43"/>
<stop offset="1" stop-color="#F7DD43" stop-opacity="0"/>
</linearGradient>
<linearGradient id="paint54_linear_175_198" x1="938.5" y1="-32.7589" x2="938.5" y2="263.177" gradientUnits="userSpaceOnUse">
<stop stop-color="#F7DD43"/>
<stop offset="1" stop-color="#F7DD43" stop-opacity="0"/>
</linearGradient>
<linearGradient id="paint55_linear_175_198" x1="938.5" y1="-32.7589" x2="938.5" y2="263.177" gradientUnits="userSpaceOnUse">
<stop stop-color="#F7DD43"/>
<stop offset="1" stop-color="#F7DD43" stop-opacity="0"/>
</linearGradient>
<linearGradient id="paint56_linear_175_198" x1="938.5" y1="-32.7589" x2="938.5" y2="263.177" gradientUnits="userSpaceOnUse">
<stop stop-color="#F7DD43"/>
<stop offset="1" stop-color="#F7DD43" stop-opacity="0"/>
</linearGradient>
<linearGradient id="paint57_linear_175_198" x1="938.5" y1="-32.7589" x2="938.5" y2="263.177" gradientUnits="userSpaceOnUse">
<stop stop-color="#F7DD43"/>
<stop offset="1" stop-color="#F7DD43" stop-opacity="0"/>
</linearGradient>
<linearGradient id="paint58_linear_175_198" x1="938.5" y1="-32.7589" x2="938.5" y2="263.177" gradientUnits="userSpaceOnUse">
<stop stop-color="#F7DD43"/>
<stop offset="1" stop-color="#F7DD43" stop-opacity="0"/>
</linearGradient>
<linearGradient id="paint59_linear_175_198" x1="938.5" y1="-32.7589" x2="938.5" y2="263.177" gradientUnits="userSpaceOnUse">
<stop stop-color="#F7DD43"/>
<stop offset="1" stop-color="#F7DD43" stop-opacity="0"/>
</linearGradient>
<linearGradient id="paint60_linear_175_198" x1="938.5" y1="-32.7589" x2="938.5" y2="263.177" gradientUnits="userSpaceOnUse">
<stop stop-color="#F7DD43"/>
<stop offset="1" stop-color="#F7DD43" stop-opacity="0"/>
</linearGradient>
<linearGradient id="paint61_linear_175_198" x1="938.5" y1="-32.7589" x2="938.5" y2="263.177" gradientUnits="userSpaceOnUse">
<stop stop-color="#F7DD43"/>
<stop offset="1" stop-color="#F7DD43" stop-opacity="0"/>
</linearGradient>
<linearGradient id="paint62_linear_175_198" x1="938.5" y1="-32.7589" x2="938.5" y2="263.177" gradientUnits="userSpaceOnUse">
<stop stop-color="#F7DD43"/>
<stop offset="1" stop-color="#F7DD43" stop-opacity="0"/>
</linearGradient>
<linearGradient id="paint63_linear_175_198" x1="938.5" y1="-32.7589" x2="938.5" y2="263.177" gradientUnits="userSpaceOnUse">
<stop stop-color="#F7DD43"/>
<stop offset="1" stop-color="#F7DD43" stop-opacity="0"/>
</linearGradient>
<linearGradient id="paint64_linear_175_198" x1="938.5" y1="-32.7589" x2="938.5" y2="263.177" gradientUnits="userSpaceOnUse">
<stop stop-color="#F7DD43"/>
<stop offset="1" stop-color="#F7DD43" stop-opacity="0"/>
</linearGradient>
<linearGradient id="paint65_linear_175_198" x1="938.5" y1="-32.7589" x2="938.5" y2="263.177" gradientUnits="userSpaceOnUse">
<stop stop-color="#F7DD43"/>
<stop offset="1" stop-color="#F7DD43" stop-opacity="0"/>
</linearGradient>
<linearGradient id="paint66_linear_175_198" x1="938.5" y1="-32.7589" x2="938.5" y2="263.177" gradientUnits="userSpaceOnUse">
<stop stop-color="#F7DD43"/>
<stop offset="1" stop-color="#F7DD43" stop-opacity="0"/>
</linearGradient>
<linearGradient id="paint67_linear_175_198" x1="938.5" y1="-32.7589" x2="938.5" y2="263.177" gradientUnits="userSpaceOnUse">
<stop stop-color="#F7DD43"/>
<stop offset="1" stop-color="#F7DD43" stop-opacity="0"/>
</linearGradient>
<linearGradient id="paint68_linear_175_198" x1="938.5" y1="-32.7589" x2="938.5" y2="263.177" gradientUnits="userSpaceOnUse">
<stop stop-color="#F7DD43"/>
<stop offset="1" stop-color="#F7DD43" stop-opacity="0"/>
</linearGradient>
<linearGradient id="paint69_linear_175_198" x1="938.5" y1="-32.7589" x2="938.5" y2="263.177" gradientUnits="userSpaceOnUse">
<stop stop-color="#F7DD43"/>
<stop offset="1" stop-color="#F7DD43" stop-opacity="0"/>
</linearGradient>
<linearGradient id="paint70_linear_175_198" x1="938.5" y1="-32.7589" x2="938.5" y2="263.177" gradientUnits="userSpaceOnUse">
<stop stop-color="#F7DD43"/>
<stop offset="1" stop-color="#F7DD43" stop-opacity="0"/>
</linearGradient>
<linearGradient id="paint71_linear_175_198" x1="938.5" y1="-32.7589" x2="938.5" y2="263.177" gradientUnits="userSpaceOnUse">
<stop stop-color="#F7DD43"/>
<stop offset="1" stop-color="#F7DD43" stop-opacity="0"/>
</linearGradient>
<linearGradient id="paint72_linear_175_198" x1="938.5" y1="-32.7589" x2="938.5" y2="263.177" gradientUnits="userSpaceOnUse">
<stop stop-color="#F7DD43"/>
<stop offset="1" stop-color="#F7DD43" stop-opacity="0"/>
</linearGradient>
<linearGradient id="paint73_linear_175_198" x1="938.5" y1="-32.7589" x2="938.5" y2="263.177" gradientUnits="userSpaceOnUse">
<stop stop-color="#F7DD43"/>
<stop offset="1" stop-color="#F7DD43" stop-opacity="0"/>
</linearGradient>
<linearGradient id="paint74_linear_175_198" x1="938.5" y1="-32.7589" x2="938.5" y2="263.177" gradientUnits="userSpaceOnUse">
<stop stop-color="#F7DD43"/>
<stop offset="1" stop-color="#F7DD43" stop-opacity="0"/>
</linearGradient>
<linearGradient id="paint75_linear_175_198" x1="938.5" y1="-32.7589" x2="938.5" y2="263.177" gradientUnits="userSpaceOnUse">
<stop stop-color="#F7DD43"/>
<stop offset="1" stop-color="#F7DD43" stop-opacity="0"/>
</linearGradient>
<linearGradient id="paint76_linear_175_198" x1="938.5" y1="-32.7589" x2="938.5" y2="263.177" gradientUnits="userSpaceOnUse">
<stop stop-color="#F7DD43"/>
<stop offset="1" stop-color="#F7DD43" stop-opacity="0"/>
</linearGradient>
<linearGradient id="paint77_linear_175_198" x1="938.5" y1="-32.7589" x2="938.5" y2="263.177" gradientUnits="userSpaceOnUse">
<stop stop-color="#F7DD43"/>
<stop offset="1" stop-color="#F7DD43" stop-opacity="0"/>
</linearGradient>
<linearGradient id="paint78_linear_175_198" x1="938.5" y1="-32.7589" x2="938.5" y2="263.177" gradientUnits="userSpaceOnUse">
<stop stop-color="#F7DD43"/>
<stop offset="1" stop-color="#F7DD43" stop-opacity="0"/>
</linearGradient>
<linearGradient id="paint79_linear_175_198" x1="938.5" y1="-32.7589" x2="938.5" y2="263.177" gradientUnits="userSpaceOnUse">
<stop stop-color="#F7DD43"/>
<stop offset="1" stop-color="#F7DD43" stop-opacity="0"/>
</linearGradient>
<linearGradient id="paint80_linear_175_198" x1="938.5" y1="-32.7589" x2="938.5" y2="263.177" gradientUnits="userSpaceOnUse">
<stop stop-color="#F7DD43"/>
<stop offset="1" stop-color="#F7DD43" stop-opacity="0"/>
</linearGradient>
<linearGradient id="paint81_linear_175_198" x1="938.5" y1="-32.7589" x2="938.5" y2="263.177" gradientUnits="userSpaceOnUse">
<stop stop-color="#F7DD43"/>
<stop offset="1" stop-color="#F7DD43" stop-opacity="0"/>
</linearGradient>
<linearGradient id="paint82_linear_175_198" x1="938.5" y1="-32.7589" x2="938.5" y2="263.177" gradientUnits="userSpaceOnUse">
<stop stop-color="#F7DD43"/>
<stop offset="1" stop-color="#F7DD43" stop-opacity="0"/>
</linearGradient>
<linearGradient id="paint83_linear_175_198" x1="938.5" y1="-32.7589" x2="938.5" y2="263.177" gradientUnits="userSpaceOnUse">
<stop stop-color="#F7DD43"/>
<stop offset="1" stop-color="#F7DD43" stop-opacity="0"/>
</linearGradient>
<linearGradient id="paint84_linear_175_198" x1="938.5" y1="-32.7589" x2="938.5" y2="263.177" gradientUnits="userSpaceOnUse">
<stop stop-color="#F7DD43"/>
<stop offset="1" stop-color="#F7DD43" stop-opacity="0"/>
</linearGradient>
<linearGradient id="paint85_linear_175_198" x1="938.5" y1="-32.7589" x2="938.5" y2="263.177" gradientUnits="userSpaceOnUse">
<stop stop-color="#F7DD43"/>
<stop offset="1" stop-color="#F7DD43" stop-opacity="0"/>
</linearGradient>
<linearGradient id="paint86_linear_175_198" x1="938.5" y1="-32.7589" x2="938.5" y2="263.177" gradientUnits="userSpaceOnUse">
<stop stop-color="#F7DD43"/>
<stop offset="1" stop-color="#F7DD43" stop-opacity="0"/>
</linearGradient>
<linearGradient id="paint87_linear_175_198" x1="938.5" y1="-32.7589" x2="938.5" y2="263.177" gradientUnits="userSpaceOnUse">
<stop stop-color="#F7DD43"/>
<stop offset="1" stop-color="#F7DD43" stop-opacity="0"/>
</linearGradient>
<linearGradient id="paint88_linear_175_198" x1="938.5" y1="-32.7589" x2="938.5" y2="263.177" gradientUnits="userSpaceOnUse">
<stop stop-color="#F7DD43"/>
<stop offset="1" stop-color="#F7DD43" stop-opacity="0"/>
</linearGradient>
<linearGradient id="paint89_linear_175_198" x1="938.5" y1="-32.7589" x2="938.5" y2="263.177" gradientUnits="userSpaceOnUse">
<stop stop-color="#F7DD43"/>
<stop offset="1" stop-color="#F7DD43" stop-opacity="0"/>
</linearGradient>
<linearGradient id="paint90_linear_175_198" x1="938.5" y1="-32.7589" x2="938.5" y2="263.177" gradientUnits="userSpaceOnUse">
<stop stop-color="#F7DD43"/>
<stop offset="1" stop-color="#F7DD43" stop-opacity="0"/>
</linearGradient>
<linearGradient id="paint91_linear_175_198" x1="938.5" y1="-32.7589" x2="938.5" y2="263.177" gradientUnits="userSpaceOnUse">
<stop stop-color="#F7DD43"/>
<stop offset="1" stop-color="#F7DD43" stop-opacity="0"/>
</linearGradient>
<linearGradient id="paint92_linear_175_198" x1="938.5" y1="-32.7589" x2="938.5" y2="263.177" gradientUnits="userSpaceOnUse">
<stop stop-color="#F7DD43"/>
<stop offset="1" stop-color="#F7DD43" stop-opacity="0"/>
</linearGradient>
<linearGradient id="paint93_linear_175_198" x1="938.5" y1="-32.7589" x2="938.5" y2="263.177" gradientUnits="userSpaceOnUse">
<stop stop-color="#F7DD43"/>
<stop offset="1" stop-color="#F7DD43" stop-opacity="0"/>
</linearGradient>
</defs>
</svg>
